<svg width="30" height="30" viewBox="0 0 30 30" fill="none" xmlns="http://www.w3.org/2000/svg">
<g clip-path="url(#clip0_2_685)">
<path d="M29.9842 15.2807C29.9842 14.0516 29.8821 13.1547 29.6612 12.2245H15.2988V17.772H23.7292C23.5593 19.1506 22.6415 21.2268 20.6018 22.6219L20.5732 22.8077L25.1143 26.2454L25.429 26.2761C28.3184 23.6684 29.9842 19.8316 29.9842 15.2807Z" fill="#4285F4"/>
<path d="M15.2988 29.897C19.429 29.897 22.8963 28.5682 25.4289 26.2761L20.6018 22.622C19.31 23.5023 17.5763 24.1168 15.2988 24.1168C11.2535 24.1168 7.82018 21.5092 6.59629 17.905L6.41689 17.9199L1.69496 21.4909L1.63321 21.6586C4.14873 26.5418 9.31581 29.897 15.2988 29.897Z" fill="#34A853"/>
<path d="M6.59631 17.905C6.27337 16.9748 6.08648 15.9782 6.08648 14.9485C6.08648 13.9186 6.27337 12.9221 6.57932 11.992L6.57076 11.7939L1.78965 8.1655L1.63322 8.23821C0.596456 10.2646 0.0015564 12.5401 0.0015564 14.9485C0.0015564 17.3568 0.596456 19.6322 1.63322 21.6586L6.59631 17.905Z" fill="#FBBC05"/>
<path d="M15.2988 5.78004C18.1712 5.78004 20.1089 6.99252 21.2137 8.00576L25.5309 3.8866C22.8795 1.47824 19.429 0 15.2988 0C9.31582 0 4.14873 3.35507 1.63321 8.2382L6.5793 11.992C7.82019 8.38774 11.2536 5.78004 15.2988 5.78004Z" fill="#EB4335"/>
</g>
<defs>
<clipPath id="clip0_2_685">
<rect width="30" height="30" fill="white"/>
</clipPath>
</defs>
</svg>
